<svg width="1920" height="376" viewBox="0 0 1920 376" fill="none" xmlns="http://www.w3.org/2000/svg">
<path d="M64.7344 375.5C16.401 375.5 -21.9323 364.167 -50.2656 341.5C-78.2656 318.833 -92.2656 287.833 -92.2656 248.5H35.2344C35.2344 259.833 38.0677 268.667 43.7344 275C49.4011 281.333 57.2344 284.5 67.2344 284.5C82.5677 284.5 90.2344 278.333 90.2344 266C90.2344 256.667 82.4011 249.167 66.7344 243.5L-8.76562 216.5C-61.4323 197.5 -87.7656 163.667 -87.7656 115C-87.7656 80 -74.599 52.1667 -48.2656 31.5C-21.9323 10.8333 14.7344 0.499988 61.7344 0.499988C108.401 0.499988 145.568 10.6667 173.234 31C200.901 51 214.734 78.6667 214.734 114H87.2344C87.2344 93.3333 78.5677 83 61.2344 83C54.5677 83 49.2344 84.6667 45.2344 88C41.5677 91 39.7344 95.1667 39.7344 100.5C39.7344 105.167 41.5677 109.167 45.2344 112.5C49.2344 115.5 56.9011 119.167 68.2344 123.5L138.734 150C191.401 170 217.734 204.333 217.734 253C217.734 291 204.068 321 176.734 343C149.401 364.667 112.068 375.5 64.7344 375.5ZM245.293 363V13H416.293L471.793 222L527.293 13H693.293V363H570.793V145.5L519.293 363H425.793L367.793 145.5V363H245.293ZM802.957 363V120.5H718.457V13H1014.96V120.5H930.457V363H802.957ZM1360.96 321C1324.96 357.333 1276.79 375.5 1216.46 375.5C1156.13 375.5 1107.79 357.333 1071.46 321C1035.46 284.333 1017.46 240 1017.46 188C1017.46 136 1035.46 91.8333 1071.46 55.5C1107.79 18.8333 1156.13 0.499988 1216.46 0.499988C1276.79 0.499988 1324.96 18.8333 1360.96 55.5C1397.29 91.8333 1415.46 136 1415.46 188C1415.46 240 1397.29 284.333 1360.96 321ZM1166.96 240.5C1178.29 254.5 1194.79 261.5 1216.46 261.5C1238.13 261.5 1254.63 254.5 1265.96 240.5C1277.29 226.167 1282.96 208.667 1282.96 188C1282.96 167.333 1277.29 150 1265.96 136C1254.63 121.667 1238.13 114.5 1216.46 114.5C1194.79 114.5 1178.29 121.667 1166.96 136C1155.63 150 1149.96 167.333 1149.96 188C1149.96 208.667 1155.63 226.167 1166.96 240.5ZM1539.4 363L1410.9 13H1545.9L1598.9 202L1650.4 13H1753.4L1804.9 202L1857.9 13H1992.9L1864.4 363H1748.9L1701.9 202L1654.9 363H1539.4ZM2010.41 363V13H2137.91L2224.91 184.5V13H2347.41V363H2219.91L2132.91 191.5V363H2010.41Z" fill="black"/>
</svg>
