<svg width="541" height="136" viewBox="0 0 541 136" fill="none" xmlns="http://www.w3.org/2000/svg">
<path d="M25.0563 100L0.35625 30H17.3563L31.9563 76.5L45.8563 30H58.4563L72.3563 76.5L86.9563 30H103.956L79.2563 100H66.0563L52.1563 56L38.2563 100H25.0563ZM150.548 73.4C150.548 75.4 150.414 77.6333 150.148 80.1H114.548C114.681 83.2333 115.748 85.6667 117.748 87.4C119.748 89.1333 122.448 90 125.848 90C130.514 90 133.514 88.5 134.848 85.5H149.848C149.114 90.2333 146.514 94.1 142.048 97.1C137.648 100.033 132.248 101.5 125.848 101.5C117.648 101.5 111.181 99.2333 106.448 94.7C101.714 90.1667 99.3477 83.9 99.3477 75.9C99.3477 68.0333 101.714 61.8333 106.448 57.3C111.181 52.7 117.481 50.4 125.348 50.4C132.814 50.4 138.881 52.5333 143.548 56.8C148.214 61.0667 150.548 66.6 150.548 73.4ZM114.548 70.6H135.448C135.381 67.4 134.481 64.9333 132.748 63.2C131.014 61.4667 128.514 60.6 125.248 60.6C121.981 60.6 119.381 61.5333 117.448 63.4C115.581 65.2 114.614 67.6 114.548 70.6Z" fill="black"/>
<path d="M205.521 101C198.121 101 191.954 98.5333 187.021 93.6C182.154 88.6667 179.721 82.7667 179.721 75.9C179.721 68.4333 182.154 62.4333 187.021 57.9C191.954 53.3667 197.921 51.0667 204.921 51C210.654 50.9333 215.521 52.2667 219.521 55C223.588 57.7333 225.621 61.0667 225.621 65C225.621 66.4667 225.121 67.7 224.121 68.7C223.121 69.6333 221.554 70.0667 219.421 70C217.821 69.9333 216.421 69.3667 215.221 68.3C214.021 67.2333 213.021 66 212.221 64.6C211.488 63.2 210.721 61.8 209.921 60.4C209.121 59 208.121 57.8333 206.921 56.9C205.721 55.9 204.321 55.4 202.721 55.4C199.921 55.4 197.654 56.6667 195.921 59.2C194.254 61.7333 193.421 64.9 193.421 68.7C193.421 75.3667 194.954 80.7 198.021 84.7C201.154 88.7 205.288 90.7 210.421 90.7C215.688 90.7 219.688 88.3667 222.421 83.7C222.821 83.1667 223.288 82.8667 223.821 82.8C224.421 82.6667 224.921 82.8 225.321 83.2C225.788 83.5333 225.988 84.0333 225.921 84.7C225.588 89.1667 223.621 93 220.021 96.2C216.488 99.4 211.654 101 205.521 101ZM261.807 51C264.674 51 266.907 51.8667 268.507 53.6C270.174 55.2667 271.007 57.4333 271.007 60.1C271.007 65.3667 268.874 68 264.607 68C262.874 68 261.507 67.5667 260.507 66.7C259.574 65.7667 259.007 64.7667 258.807 63.7C258.607 62.6333 258.207 61.6667 257.607 60.8C257.007 59.8667 256.107 59.4 254.907 59.4C253.107 59.4 251.774 60.4667 250.907 62.6C250.04 64.7333 249.607 67.3333 249.607 70.4V90.4C249.607 91.6 250.007 92.6667 250.807 93.6C251.674 94.4667 252.507 95.2333 253.307 95.9C254.174 96.5667 254.607 97.2333 254.607 97.9V98.3C254.607 99.4333 253.874 100 252.407 100H233.907C232.374 100 231.607 99.4333 231.607 98.3V97.9C231.607 97.2333 232.24 96.2 233.507 94.8C234.84 93.4 235.507 91.9333 235.507 90.4V67C235.507 65.4 234.74 63.9667 233.207 62.7C231.674 61.4333 230.907 60.4667 230.907 59.8V59.4C230.907 58.4667 231.607 57.6667 233.007 57L245.007 51.4C247.14 50.4 248.207 51.0667 248.207 53.4V60.9C250.474 54.3 255.007 51 261.807 51ZM314.095 84.8C314.695 84 315.428 83.7333 316.295 84C317.161 84.2667 317.561 84.9 317.495 85.9C317.161 89.3667 315.161 92.7667 311.495 96.1C307.828 99.3667 303.061 101 297.195 101C290.128 101 284.328 98.6667 279.795 94C275.261 89.3333 272.995 83.2 272.995 75.6C272.995 68.4667 275.361 62.6 280.095 58C284.828 53.3333 290.528 51 297.195 51C303.261 51 307.928 52.4333 311.195 55.3C314.461 58.1667 316.095 61.4667 316.095 65.2C316.095 68.2667 314.628 70.4667 311.695 71.8L289.495 81.9C292.228 87.7 296.628 90.6 302.695 90.6C305.228 90.6 307.495 90.0667 309.495 89C311.561 87.8667 313.095 86.4667 314.095 84.8ZM295.395 55.4C292.795 55.4 290.728 56.6667 289.195 59.2C287.661 61.6667 286.895 64.8333 286.895 68.7C286.895 71.9667 287.228 74.8333 287.895 77.3L300.795 70.8C302.528 69.9333 303.395 68.3667 303.395 66.1C303.395 63.8333 302.661 61.5 301.195 59.1C299.728 56.6333 297.795 55.4 295.395 55.4ZM367.816 90C368.016 91.5333 368.382 92.7667 368.916 93.7C369.516 94.6333 370.116 95.2333 370.716 95.5C371.316 95.7 371.849 95.9667 372.316 96.3C372.782 96.6333 373.016 97.1 373.016 97.7C373.016 99.6333 369.816 100.6 363.416 100.6C360.482 100.6 358.316 100.233 356.916 99.5C355.582 98.7 354.782 97.2667 354.516 95.2C351.916 99.0667 347.482 101 341.216 101C335.616 101 331.082 99.7 327.616 97.1C324.149 94.5 322.416 90.7667 322.416 85.9C322.349 81.1 324.049 77.3667 327.516 74.7C330.982 72.0333 335.316 70.7 340.516 70.7C344.916 70.7 348.549 71.7 351.416 73.7L351.316 72.5C350.649 66.1667 349.716 61.7 348.516 59.1C347.316 56.5 345.282 55.2 342.416 55.2C340.616 55.2 339.149 55.8667 338.016 57.2C336.882 58.5333 336.082 60 335.616 61.6C335.149 63.2 334.382 64.6667 333.316 66C332.249 67.3333 330.882 68 329.216 68C327.416 68 325.949 67.5 324.816 66.5C323.749 65.4333 323.216 64.0667 323.216 62.4C323.216 58.9333 325.049 56.1667 328.716 54.1C332.449 52.0333 337.016 51 342.416 51C348.882 51 354.182 52.8333 358.316 56.5C362.449 60.1667 364.882 65.1667 365.616 71.5L367.816 90ZM345.616 96.6C347.816 96.6 349.582 95.7 350.916 93.9C352.249 92.0333 352.849 89.9333 352.716 87.6L352.416 84.1C352.149 81.2333 351.282 79.0333 349.816 77.5C348.416 75.9667 346.649 75.2 344.516 75.2C342.382 75.2 340.616 75.9667 339.216 77.5C337.882 79.0333 337.216 81.0667 337.216 83.6C337.216 87.2 337.982 90.2667 339.516 92.8C341.116 95.3333 343.149 96.6 345.616 96.6ZM395.341 101C390.674 101 386.974 99.5333 384.241 96.6C381.574 93.6 380.241 89.3 380.241 83.7V57.8H375.541C374.207 57.8 373.541 57.1333 373.541 55.8V54.1C373.541 52.7 374.207 52 375.541 52H378.041C380.774 52 383.074 51.1 384.941 49.3C386.874 47.5 388.107 45.1 388.641 42.1C388.974 40.5 389.741 39.7 390.941 39.7H392.941C394.407 39.7 395.141 40.5 395.141 42.1L395.241 52H406.741C407.274 52 407.741 52.2 408.141 52.6C408.541 53 408.741 53.5 408.741 54.1V55.8C408.741 56.4 408.541 56.9 408.141 57.3C407.741 57.6333 407.274 57.8 406.741 57.8H395.241V83.9C395.241 85.8333 395.707 87.4 396.641 88.6C397.641 89.7333 398.874 90.3 400.341 90.3C403.807 90.3 406.074 88.8 407.141 85.8C407.741 84.9333 408.474 84.6 409.341 84.8C410.274 84.9333 410.741 85.4667 410.741 86.4C410.741 90.2667 409.341 93.6667 406.541 96.6C403.807 99.5333 400.074 101 395.341 101ZM433.01 42.5C431.277 44.1 428.943 44.9 426.01 44.9C423.077 44.9 420.677 44.1 418.81 42.5C417.01 40.8333 416.11 38.7 416.11 36.1C416.11 33.5667 417.01 31.5 418.81 29.9C420.677 28.2333 423.077 27.4 426.01 27.4C428.943 27.4 431.277 28.2333 433.01 29.9C434.81 31.5 435.71 33.5667 435.71 36.1C435.71 38.7 434.81 40.8333 433.01 42.5ZM416.91 100C415.443 100 414.71 99.4333 414.71 98.3V97.9C414.71 97.2333 415.343 96.2 416.61 94.8C417.877 93.4 418.51 91.9 418.51 90.3V67.7C418.51 66.0333 417.877 64.4667 416.61 63C415.343 61.5333 414.71 60.5333 414.71 60V59.7C414.71 59.0333 415.41 58.3333 416.81 57.6L429.31 51.4C430.577 50.8667 431.577 50.8333 432.31 51.3C433.043 51.7 433.41 52.4 433.41 53.4V90.3C433.41 91.9 434.11 93.4 435.51 94.8C436.91 96.2 437.61 97.2333 437.61 97.9V98.3C437.61 99.4333 436.843 100 435.31 100H416.91ZM492.419 52C493.819 52 494.519 52.5333 494.519 53.6V54C494.519 54.8 493.619 55.9333 491.819 57.4C490.019 58.8 488.852 60.2 488.319 61.6L474.519 97.6C473.985 99.2 472.885 100 471.219 100H464.719C463.252 100 462.185 99.2 461.519 97.6L444.919 61.6C444.385 60.4 443.419 59.0667 442.019 57.6C440.685 56.0667 440.019 54.8667 440.019 54V53.6C440.019 52.5333 440.685 52 442.019 52H461.919C463.252 52 463.919 52.5667 463.919 53.7V54.1C463.919 54.6333 463.619 55.3 463.019 56.1C462.419 56.9 461.952 57.6667 461.619 58.4C461.285 59.0667 461.352 60.2333 461.819 61.9L472.319 88.8L481.719 63.8C482.385 61.4 482.452 59.7333 481.919 58.8C481.385 57.8667 480.619 57 479.619 56.2C478.685 55.3333 478.219 54.6333 478.219 54.1V53.7C478.219 52.5667 478.919 52 480.319 52H492.419ZM535.579 84.8C536.179 84 536.912 83.7333 537.779 84C538.646 84.2667 539.046 84.9 538.979 85.9C538.646 89.3667 536.646 92.7667 532.979 96.1C529.312 99.3667 524.546 101 518.679 101C511.612 101 505.812 98.6667 501.279 94C496.746 89.3333 494.479 83.2 494.479 75.6C494.479 68.4667 496.846 62.6 501.579 58C506.312 53.3333 512.012 51 518.679 51C524.746 51 529.412 52.4333 532.679 55.3C535.946 58.1667 537.579 61.4667 537.579 65.2C537.579 68.2667 536.112 70.4667 533.179 71.8L510.979 81.9C513.712 87.7 518.112 90.6 524.179 90.6C526.712 90.6 528.979 90.0667 530.979 89C533.046 87.8667 534.579 86.4667 535.579 84.8ZM516.879 55.4C514.279 55.4 512.212 56.6667 510.679 59.2C509.146 61.6667 508.379 64.8333 508.379 68.7C508.379 71.9667 508.712 74.8333 509.379 77.3L522.279 70.8C524.012 69.9333 524.879 68.3667 524.879 66.1C524.879 63.8333 524.146 61.5 522.679 59.1C521.212 56.6333 519.279 55.4 516.879 55.4Z" fill="black"/>
</svg>
